<mxfile host="app.diagrams.net" agent="Mozilla/5.0 (X11; Ubuntu; Linux x86_64; rv:132.0) Gecko/20100101 Firefox/132.0" version="24.7.17">
  <diagram name="Page-1" id="cG9y4fVmJfQftZletsTW">
    <mxGraphModel grid="1" page="1" gridSize="10" guides="1" tooltips="1" connect="1" arrows="1" fold="1" pageScale="1" pageWidth="850" pageHeight="1100" math="0" shadow="0">
      <root>
        <mxCell id="0" />
        <mxCell id="1" parent="0" />
        <mxCell id="yIFyaw4LvFVfjzWxjYLb-3" value="" style="edgeStyle=orthogonalEdgeStyle;rounded=0;orthogonalLoop=1;jettySize=auto;html=1;" edge="1" parent="1" source="yIFyaw4LvFVfjzWxjYLb-1" target="yIFyaw4LvFVfjzWxjYLb-2">
          <mxGeometry relative="1" as="geometry" />
        </mxCell>
        <mxCell id="yIFyaw4LvFVfjzWxjYLb-1" value="Start" style="ellipse;whiteSpace=wrap;html=1;" vertex="1" parent="1">
          <mxGeometry x="280" y="40" width="120" height="80" as="geometry" />
        </mxCell>
        <mxCell id="yIFyaw4LvFVfjzWxjYLb-5" value="" style="edgeStyle=orthogonalEdgeStyle;rounded=0;orthogonalLoop=1;jettySize=auto;html=1;" edge="1" parent="1" source="yIFyaw4LvFVfjzWxjYLb-2" target="yIFyaw4LvFVfjzWxjYLb-4">
          <mxGeometry relative="1" as="geometry" />
        </mxCell>
        <mxCell id="yIFyaw4LvFVfjzWxjYLb-2" value="&lt;div&gt;double x=0.25&lt;/div&gt;&lt;div&gt;double y=0.79&lt;/div&gt;&lt;div&gt;double z=0.81&lt;/div&gt;&lt;div&gt;double temp1=1+pow(sin(x+1),2)&lt;/div&gt;&lt;div&gt;double temp2=1+pow(x,2)*pow(y,3)&lt;/div&gt;&lt;div&gt;double temp3=2+fabs(x-(2*pow(x,3))/temp2&lt;/div&gt;&lt;div&gt;double P=(temp1/temp3)+pow(x,4)&lt;/div&gt;&lt;div&gt;double Q=pow(cos(atan(1/z)),2)&lt;br&gt;&lt;/div&gt;" style="rounded=0;whiteSpace=wrap;html=1;" vertex="1" parent="1">
          <mxGeometry x="222.5" y="170" width="235" height="130" as="geometry" />
        </mxCell>
        <mxCell id="yIFyaw4LvFVfjzWxjYLb-7" value="" style="edgeStyle=orthogonalEdgeStyle;rounded=0;orthogonalLoop=1;jettySize=auto;html=1;" edge="1" parent="1" source="yIFyaw4LvFVfjzWxjYLb-4" target="yIFyaw4LvFVfjzWxjYLb-6">
          <mxGeometry relative="1" as="geometry" />
        </mxCell>
        <mxCell id="yIFyaw4LvFVfjzWxjYLb-4" value="Output P &quot; &quot; Q" style="shape=parallelogram;perimeter=parallelogramPerimeter;whiteSpace=wrap;html=1;fixedSize=1;" vertex="1" parent="1">
          <mxGeometry x="280" y="360" width="120" height="60" as="geometry" />
        </mxCell>
        <mxCell id="yIFyaw4LvFVfjzWxjYLb-6" value="End" style="ellipse;whiteSpace=wrap;html=1;" vertex="1" parent="1">
          <mxGeometry x="280" y="480" width="120" height="80" as="geometry" />
        </mxCell>
      </root>
    </mxGraphModel>
  </diagram>
</mxfile>
